<?xml version="1.0" standalone="no"?> <!DOCTYPE svg PUBLIC "-//W3C//DTD SVG 1.0//EN" "http://www.w3.org/TR/2001/REC-SVG-20010904/DTD/svg10.dtd" > <svg xmlns="http://www.w3.org/2000/svg" width="100%" height="100%">
<defs >
<font id="constantia" horiz-adv-x="1110" ><font-face
    font-family="Constantia"
    units-per-em="2048"
    panose-1="2 3 6 2 5 3 6 3 3 3"
    ascent="1538"
    descent="-510"
    alphabetic="0" />
<missing-glyph horiz-adv-x="995" d="M995 1396V0H0V1396H995ZM898 98V1299H98V98H898ZM437 455L435 488Q435 621 476 675T549 759Q610 821 627 853T645 926Q645 1001 601 1044T498 1088Q436 1088 393 1046T337 904L241 919Q256 1055 328 1120T503 1186Q607 1186
676 1120T745 935Q745 869 721 820T624 700Q551 635 539 594T526 460L437 455ZM416 291Q416 320 436 340T485 361Q514 361 534 341T555 291Q555 261 535 242T485 222Q456 222 436 241T416 291Z" />
<glyph unicode=" " glyph-name="null" horiz-adv-x="514" />
<glyph unicode="!" glyph-name="null" horiz-adv-x="564" d="M319 396L241 1353L465 1363L474 1355L381 399L319 396ZM350 210Q402 210 435 178T469 92Q469 39 436 6T350 -28Q295 -28 262 5T229 92Q229 145 262 177T350 210Z" />
<glyph unicode="&quot;" glyph-name="null" horiz-adv-x="736" d="M100 1487H296L206 1002H141L100 1487ZM430 1487H626L536 1002H471L430 1487Z" />
<glyph unicode="#" glyph-name="null" horiz-adv-x="1130" d="M314 -10H197L256 381H55V496H274L318 787H117V902H335L395 1294H512L452 902H741L801 1294H917L858 902H1060V787H840L797 496H998V381H779L720 -10H603L662 381H373L314 -10ZM391 496H680L724 787H435L391
496Z" />
<glyph unicode="$" glyph-name="null" horiz-adv-x="901" d="M429 1174L507 1182L504 1065Q646 1063 776 1029L783 1023L734 762L696 756L640 961Q574 986 503 989L494 621Q583 583 637 558T735 497T804 415T831 303Q831 167 739 79T480 -23L477 -151L399 -159L402
-26Q246 -21 96 27L90 35L131 322L174 329L231 91Q311 59 404 54L413 457Q343 487 289 513T192 576T122 663T95 785Q95 903 184 977T426 1062L429 1174ZM482 57Q659 83 659 243Q659 356 490 427L482 57ZM425 985Q262 965 262 837Q262 723 417 653L425 985Z" />
<glyph unicode="%" glyph-name="null" horiz-adv-x="1682" d="M213 1066Q213 884 257 788T388 691Q469 691 512 774T555 1054Q555 1240 510 1329T380 1418Q299 1418 256 1340T213 1066ZM708 1073Q708 860 615 747T376 633Q234 633 147 739T60 1045Q60 1252 151
1364T392 1476Q535 1476 621 1375T708 1073ZM343 0L1289 1477L1364 1430L417 -47L343 0ZM1142 408Q1142 226 1186 130T1317 33Q1398 33 1441 116T1484 396Q1484 582 1439 671T1309 760Q1228 760 1185 682T1142 408ZM1637 415Q1637 202 1544 89T1305 -25Q1163 -25
1076 81T989 387Q989 594 1080 706T1321 818Q1464 818 1550 717T1637 415Z" />
<glyph unicode="&amp;" glyph-name="null" horiz-adv-x="1386" d="M877 779Q934 777 990 776T1106 775Q1157 775 1201 776T1286 779L1289 735L1164 704Q1144 699 1147 681Q1153 630 1153 587Q1153 379 1051 229Q1117 137 1171 94T1297 51Q1325 51 1358 57L1366
13Q1278 -32 1183 -32Q1025 -32 914 102Q743 -28 537 -28Q344 -28 212 72T80 343Q80 575 370 727Q261 855 231 929T200 1081Q200 1224 301 1310T552 1396Q684 1396 774 1323T864 1122Q864 915 577 772L984 305Q1050 422 1050 571Q1050 632 1044 670Q1041 689 1032
697T1003 709L879 734L877 779ZM418 670Q276 553 276 377Q276 239 359 158T592 77Q735 77 854 171L418 670ZM532 824Q698 950 698 1116Q698 1206 652 1260T534 1315Q460 1315 415 1268T369 1141Q369 1010 485 878L532 824Z" />
<glyph unicode="&apos;" glyph-name="null" horiz-adv-x="406" d="M100 1487H296L206 1002H141L100 1487Z" />
<glyph unicode="(" glyph-name="null" horiz-adv-x="755" d="M612 -377Q160 6 160 595Q160 1188 612 1571L655 1533Q336 1178 336 599Q336 16 655 -339L612 -377Z" />
<glyph unicode=")" glyph-name="null" horiz-adv-x="755" d="M143 1571Q595 1188 595 599Q595 6 143 -377L100 -339Q419 16 419 595Q419 1178 100 1533L143 1571Z" />
<glyph unicode="*" glyph-name="null" horiz-adv-x="887" d="M541 1433L474 1119L761 1243L807 1103L488 1069L693 837L574 750L444 1040L286 772L167 858L403 1073L100 1141L145 1282L423 1122L393 1433H541Z" />
<glyph unicode="+" glyph-name="null" horiz-adv-x="1130" d="M93 522H505V934H626V522H1037V401H626V-10H505V401H93V522Z" />
<glyph unicode="," glyph-name="null" horiz-adv-x="524" d="M91 -279Q233 -163 233 -52Q233 45 131 104Q131 161 164 194T252 228Q311 228 347 183T384 67Q384 -41 321 -137T129 -323L91 -279Z" />
<glyph unicode="-" glyph-name="null" horiz-adv-x="736" d="M90 562H646V432H90V562Z" />
<glyph unicode="." glyph-name="null" horiz-adv-x="524" d="M268 210Q320 210 353 178T387 92Q387 39 354 6T268 -28Q213 -28 180 5T147 92Q147 145 180 177T268 210Z" />
<glyph unicode="/" glyph-name="null" horiz-adv-x="825" d="M110 -226L615 1426H735L230 -226H110Z" />
<glyph unicode="0" glyph-name="null" horiz-adv-x="1103" d="M280 477Q280 279 351 166T557 53Q693 53 758 154T823 463Q823 667 752 770T546 874Q408 874 344 775T280 477ZM1023 485Q1023 251 890 113T541 -26Q334 -26 207 101T80 451Q80 680 213 815T563 950Q774
950 898 827T1023 485Z" />
<glyph unicode="1" glyph-name="null" horiz-adv-x="641" d="M35 832L30 874Q231 904 432 940L441 932Q429 757 429 571V327Q429 195 431 114Q432 85 459 78L618 37L621 -3Q436 0 338 0Q240 0 56 -3L52 37L215 78Q241 85 242 110Q244 191 244 290V456Q244 657
240 812L35 832Z" />
<glyph unicode="2" glyph-name="null" horiz-adv-x="992" d="M868 317L912 325L892 4L885 -3Q681 0 458 0Q251 0 77 -3L70 79Q164 140 239 192T369 289Q424 333 466 373T536 452T580 533T595 619Q595 711 528 765T364 819Q250 819 134 757L96 823Q283 950 471
950Q612 950 705 882T799 691Q799 615 765 550T666 421T507 294T292 157L293 152H790L868 317Z" />
<glyph unicode="3" glyph-name="null" horiz-adv-x="935" d="M210 332Q389 351 497 425T605 617Q605 711 535 770T356 829Q215 829 71 754L30 820Q228 950 437 950Q592 950 698 876T804 680Q804 458 476 348V344Q664 337 769 249T875 33Q875 -174 655 -310T21
-460L10 -386Q339 -364 502 -259T666 5Q666 129 581 200T345 271Q286 271 217 259L210 332Z" />
<glyph unicode="4" glyph-name="null" horiz-adv-x="1087" d="M634 717Q521 590 408 446T184 149H634V717ZM819 -117Q819 -257 824 -400Q728 -410 642 -426L632 -418Q634 -278 634 -133V50H385Q248 50 52 47L45 120Q203 329 370 537T708 943L825 950Q819 726 819
532V149H1048L1052 47Q942 50 819 50V-117Z" />
<glyph unicode="5" glyph-name="null" horiz-adv-x="974" d="M132 344L190 928Q315 924 489 924Q690 924 866 928L872 920L847 755L270 769L242 487Q327 501 402 501Q631 501 767 390T904 85Q904 -163 676 -310T100 -460L90 -386Q363 -376 534 -262T706 45Q706
194 606 276T323 358Q232 358 138 337L132 344Z" />
<glyph unicode="6" glyph-name="null" horiz-adv-x="1108" d="M965 1322Q656 1260 502 1105T303 722L305 721Q426 853 619 853Q798 853 920 733T1043 428Q1043 232 909 103T576 -26Q356 -26 220 133T84 543Q84 851 296 1088T951 1393L965 1322ZM842 370Q842 545
761 654T554 764Q439 764 367 683T295 461Q295 290 379 168T593 46Q706 46 774 139T842 370Z" />
<glyph unicode="7" glyph-name="null" horiz-adv-x="990" d="M224 -403L809 769H170L112 571L72 564L55 920L62 928Q180 926 292 925T512 924H568Q676 924 775 925T966 928L970 885Q918 778 866 665T763 437T664 208T574 -13T497 -219T435 -400L229 -410L224 -403Z" />
<glyph unicode="8" glyph-name="null" horiz-adv-x="1099" d="M391 701Q247 776 195 851T142 1026Q142 1176 265 1273T573 1371Q739 1371 847 1293T956 1091Q956 906 693 753Q893 656 964 569T1036 360Q1036 193 889 84T538 -26Q333 -26 203 67T73 316Q73 549
391 701ZM462 664Q257 547 257 340Q257 209 335 132T551 54Q676 54 760 123T845 304Q845 410 768 486T462 664ZM619 791Q778 906 778 1061Q778 1172 714 1232T545 1293Q439 1293 372 1238T304 1088Q304 993 377 930T619 791Z" />
<glyph unicode="9" glyph-name="null" horiz-adv-x="1119" d="M177 -389Q428 -344 593 -198T827 207L825 208Q708 75 521 75Q334 75 210 194T85 498Q85 690 221 820T554 950Q769 950 906 794T1044 393Q1044 58 811 -176T191 -460L177 -389ZM288 558Q288 380 369
272T576 164Q701 164 767 244T833 469Q833 644 746 761T537 878Q429 878 359 792T288 558Z" />
<glyph unicode=":" glyph-name="null" horiz-adv-x="524" d="M310 210Q362 210 395 178T429 92Q429 39 396 6T310 -28Q255 -28 222 5T189 92Q189 145 222 177T310 210ZM310 921Q362 921 395 889T429 803Q429 750 396 717T310 683Q255 683 222 716T189 803Q189
856 222 888T310 921Z" />
<glyph unicode=";" glyph-name="null" horiz-adv-x="524" d="M141 -279Q283 -163 283 -52Q283 45 181 104Q181 161 214 194T302 228Q361 228 397 183T434 67Q434 -41 371 -137T179 -323L141 -279ZM310 921Q362 921 395 889T429 803Q429 750 396 717T310 683Q255
683 222 716T189 803Q189 856 222 888T310 921Z" />
<glyph unicode="&lt;" glyph-name="null" horiz-adv-x="1130" d="M93 522L1037 922V795L238 461L1037 128V1L93 401V522Z" />
<glyph unicode="=" glyph-name="null" horiz-adv-x="1130" d="M93 692H1037V571H93V692ZM93 352H1037V231H93V352Z" />
<glyph unicode="&gt;" glyph-name="null" horiz-adv-x="1130" d="M1037 401L93 1V128L892 461L93 795V922L1037 522V401Z" />
<glyph unicode="?" glyph-name="null" horiz-adv-x="890" d="M452 210Q504 210 537 178T571 92Q571 38 538 5T452 -28Q397 -28 364 5T331 92Q331 146 364 178T452 210ZM456 388Q397 441 346 509T295 609Q295 637 309 666T347 725T401 785T463 848Q497 881 529
915T587 983T628 1052T644 1121Q644 1206 588 1256T436 1306Q370 1306 304 1278L238 1049L199 1043L140 1323Q308 1388 460 1388Q626 1388 723 1314T820 1101Q820 1047 803 1001T757 913T693 836T622 765Q591 736 563 708T512 653T476 596T463 536Q463 481 500
416L456 388Z" />
<glyph unicode="@" glyph-name="null" horiz-adv-x="1727" d="M1263 859Q1233 759 1193 562L1130 253Q1124 224 1124 205Q1124 169 1141 154T1191 138Q1311 138 1409 277T1507 590Q1507 837 1348 988T949 1139Q640 1139 450 934T259 406Q259 110 440 -74T919 -259Q1265
-259 1530 -10L1573 -58Q1271 -361 868 -361Q528 -361 319 -155T110 378Q110 739 346 975T952 1212Q1232 1212 1422 1041T1612 600Q1612 385 1463 213T1128 41Q1054 41 1011 78T965 186Q873 112 816 78T723 43Q612 43 547 125T481 335Q481 560 619 715T967 870Q1046
870 1151 838Q1198 847 1251 866L1263 859ZM1077 766Q1014 799 953 799Q826 799 738 668T650 376Q650 284 683 223T780 162Q836 162 972 257L1077 766Z" />
<glyph unicode="A" glyph-name="null" horiz-adv-x="1381" d="M754 1421L1198 198Q1223 129 1243 105T1302 68L1396 40L1398 -3Q1267 0 1155 0Q1041 0 886 -3L882 40L977 68Q997 75 1005 83T1014 110Q1014 130 1004 162T974 249L880 517H398L293 250Q272 194 260
161T248 109Q248 92 257 84T286 69L379 42L381 -3Q239 0 149 0Q59 0 -52 -3L-57 40L44 71Q82 83 100 108T140 186L651 1406L754 1421ZM435 608H847L652 1159L435 608Z" />
<glyph unicode="B" glyph-name="null" horiz-adv-x="1223" d="M98 1400Q227 1396 349 1396Q395 1398 498 1402T637 1406Q853 1406 963 1325T1074 1090Q1074 844 809 755Q964 729 1052 640T1141 413Q1141 213 996 104T594 -6Q543 -6 484 -3T350 0Q229 0 102 -3L98
40L221 77Q246 84 248 108Q249 148 249 197T250 307V1118Q250 1169 250 1210T248 1284Q247 1310 224 1318L100 1357L98 1400ZM444 696V89Q474 78 513 75T586 72Q752 72 838 154T925 392Q925 548 838 623T555 699Q498 699 444 696ZM444 776Q506 775 570 775Q718
775 793 846T869 1054Q869 1197 792 1259T568 1322Q542 1322 511 1321T444 1315V776Z" />
<glyph unicode="C" glyph-name="null" horiz-adv-x="1334" d="M1178 1051L1138 1045L1065 1308Q941 1339 840 1339Q595 1339 455 1168T315 724Q315 432 475 258T918 84Q1077 84 1253 145L1264 100Q1067 -36 818 -36Q495 -36 297 161T99 680Q99 1023 317 1223T887
1423Q1056 1423 1233 1382L1240 1374L1178 1051Z" />
<glyph unicode="D" glyph-name="null" horiz-adv-x="1538" d="M350 0Q229 0 102 -3L98 40L221 77Q247 85 248 108Q249 148 249 197T250 307V1118Q250 1169 250 1210T248 1284Q247 1310 224 1318L100 1357L98 1400Q227 1396 349 1396Q449 1396 542 1401T733 1406Q1083
1406 1259 1247T1435 773Q1435 403 1240 199T691 -6Q594 -6 518 -3T350 0ZM446 89Q505 81 561 79T675 76Q939 76 1077 231T1215 708Q1215 1020 1084 1170T669 1321Q624 1321 570 1319T446 1312V89Z" />
<glyph unicode="E" glyph-name="null" horiz-adv-x="1189" d="M346 1396H589Q813 1396 1062 1400L1068 1392L1010 1083L970 1076L908 1307H446V757H537Q641 757 769 759Q795 760 803 785L838 920L892 922Q889 782 889 715Q889 650 892 511L838 507L802 644Q794
670 771 671Q641 673 536 673H446V309Q446 198 448 90H928L1050 344L1095 352L1073 4L1066 -3Q807 0 588 0H350Q229 0 102 -3L98 40L221 77Q246 84 248 108Q249 148 249 197T250 307V1118Q250 1169 250 1210T248 1284Q247 1310 224 1318L100 1357L98 1400Q227 1396
346 1396Z" />
<glyph unicode="F" glyph-name="null" horiz-adv-x="1104" d="M446 307Q446 189 448 113Q449 89 474 82L612 40L614 -3Q469 0 350 0Q231 0 102 -3L98 40L221 77Q247 85 248 108Q250 189 250 307V1118Q250 1169 250 1210T248 1284Q247 1310 224 1318L100 1357L98
1400Q227 1396 346 1396H589Q813 1396 1062 1400L1068 1392L1010 1083L970 1076L908 1307H446V736H542Q646 736 774 738Q801 739 808 764L849 899L897 901Q894 761 894 694Q894 629 897 490L849 486L807 623Q799 649 777 650Q646 652 541 652H446V307Z" />
<glyph unicode="G" glyph-name="null" horiz-adv-x="1435" d="M1183 1051L1143 1045L1074 1307Q952 1339 845 1339Q595 1339 455 1170T315 702Q315 401 468 224T880 46Q967 46 1051 68V335Q1051 385 1051 426T1049 501Q1048 527 1025 534L901 573L899 616Q1028
613 1146 613Q1266 613 1378 616L1383 573L1274 541Q1250 533 1248 510Q1247 470 1247 429T1246 339V19L1240 12Q1036 -37 865 -37Q514 -37 307 149T99 668Q99 1022 313 1222T901 1423Q1062 1423 1239 1382L1245 1374L1183 1051Z" />
<glyph unicode="H" glyph-name="null" horiz-adv-x="1620" d="M446 692V307Q446 189 448 109Q449 82 474 75L585 40L588 -3Q469 0 350 0Q231 0 102 -3L98 40L221 77Q247 85 248 108Q250 189 250 307V1118Q250 1218 248 1284Q247 1310 224 1318L100 1357L98 1400Q227
1396 346 1396Q466 1396 583 1400L588 1357L474 1322Q449 1316 448 1291Q446 1219 446 1122V783H1174V1122Q1174 1219 1172 1291Q1171 1316 1146 1322L1035 1357L1033 1400Q1155 1396 1274 1396Q1393 1396 1518 1400L1522 1357L1396 1318Q1373 1310 1372 1284Q1370
1218 1370 1118V307Q1370 189 1372 108Q1373 85 1399 77L1520 40L1522 -3Q1390 0 1270 0Q1151 0 1037 -3L1033 40L1146 75Q1171 82 1172 109Q1174 189 1174 307V692H446Z" />
<glyph unicode="I" glyph-name="null" horiz-adv-x="696" d="M446 307Q446 247 446 198T448 109Q449 84 483 75L596 40L598 -3Q469 0 350 0Q229 0 102 -3L98 40L221 77Q246 84 248 108Q249 148 249 197T250 307V1118Q250 1169 250 1210T248 1284Q247 1310 224
1318L100 1357L98 1400Q227 1396 346 1396Q466 1396 594 1400L598 1357L474 1320Q450 1314 448 1289Q447 1254 447 1213T446 1122V307Z" />
<glyph unicode="J" glyph-name="null" horiz-adv-x="640" d="M83 1400Q212 1396 331 1396Q450 1396 578 1400L583 1357L459 1320Q434 1314 432 1289Q431 1254 431 1213T430 1122V216Q430 118 423 38T396 -106T343 -218T255 -306T127 -374T-51 -427L-66 -377Q38
-333 97 -280T187 -159T226 -6T235 186V1118Q235 1169 235 1210T233 1284Q232 1310 209 1318L85 1357L83 1400Z" />
<glyph unicode="K" glyph-name="null" horiz-adv-x="1350" d="M446 1122V307Q446 247 446 198T448 109Q449 83 474 75L585 40L588 -3Q469 0 350 0Q229 0 102 -3L98 40L221 77Q247 85 248 108Q249 148 249 197T250 307V1118Q250 1169 250 1210T248 1284Q247 1310
224 1318L100 1357L98 1400Q227 1396 346 1396Q465 1396 583 1400L588 1357L474 1322Q450 1316 448 1291Q447 1255 447 1213T446 1122ZM472 708L875 1157Q922 1210 951 1246T980 1305Q980 1325 953 1332L871 1354L869 1400Q968 1396 1090 1396Q1207 1396 1310 1400L1314
1357L1213 1325Q1167 1310 1134 1279T1062 1206L662 766L1117 166Q1146 128 1174 105T1247 68L1338 40L1340 -3Q1256 0 1127 0Q1093 0 1058 0T988 -2Q953 70 803 269L472 708Z" />
<glyph unicode="L" glyph-name="null" horiz-adv-x="1138" d="M446 1122V309Q446 198 448 90H935L1063 355L1108 362L1086 4L1080 -3Q821 0 601 0H350Q229 0 102 -3L98 40L221 77Q246 84 248 108Q249 148 249 197T250 307V1118Q250 1169 250 1210T248 1284Q247
1310 224 1318L100 1357L98 1400Q227 1396 346 1396Q466 1396 594 1400L598 1357L474 1320Q450 1314 448 1289Q447 1254 447 1187T446 1122Z" />
<glyph unicode="M" glyph-name="null" horiz-adv-x="1854" d="M1383 1400Q1477 1396 1553 1396Q1627 1396 1752 1400L1756 1357L1630 1318Q1607 1310 1606 1284Q1604 1218 1604 1118V307Q1604 189 1606 108Q1607 85 1634 77L1754 40L1756 -3Q1624 0 1504 0Q1386
0 1271 -3L1267 40L1382 75Q1406 82 1407 110Q1409 189 1409 307V1173L913 0L840 -8L341 1173V307Q341 189 343 110Q344 82 369 75L481 40L483 -3Q364 0 284 0Q206 0 77 -3L73 40L196 77Q222 85 223 108Q225 189 225 307V1118Q225 1218 223 1284Q222 1310 199 1318L75
1357L73 1400Q202 1396 277 1396Q363 1396 456 1400L920 303L1383 1400Z" />
<glyph unicode="N" glyph-name="null" horiz-adv-x="1534" d="M341 1115V307Q341 189 343 111Q344 83 368 77L487 42L489 -3Q364 0 284 0Q206 0 77 -3L73 40L196 77Q222 85 223 108Q225 189 225 307V1118Q225 1218 223 1284Q222 1310 199 1318L75 1357L73 1400Q202
1396 277 1396Q322 1396 368 1400L1208 351V1122Q1208 1219 1206 1289Q1205 1312 1180 1320L1062 1354L1060 1400Q1188 1396 1267 1396Q1347 1396 1472 1400L1476 1357L1350 1318Q1327 1310 1326 1284Q1324 1218 1324 1118V0L1240 -8L341 1115Z" />
<glyph unicode="O" glyph-name="null" horiz-adv-x="1647" d="M319 717Q319 391 451 218T838 44Q1089 44 1208 201T1328 696Q1328 1012 1201 1182T809 1352Q552 1352 436 1195T319 717ZM1548 730Q1548 384 1352 174T802 -37Q467 -37 284 157T100 684Q100 1030
297 1231T845 1433Q1181 1433 1364 1245T1548 730Z" />
<glyph unicode="P" glyph-name="null" horiz-adv-x="1191" d="M446 676Q516 664 584 664Q744 664 827 746T911 999Q911 1162 832 1242T581 1322Q514 1322 446 1314V676ZM446 307Q446 247 446 199T448 113Q449 90 474 82L612 40L614 -3Q469 0 350 0Q229 0 102 -3L98
40L221 77Q247 85 248 108Q249 148 249 197T250 307V1118Q250 1169 250 1210T248 1284Q247 1310 224 1318L100 1357L98 1400Q227 1396 349 1396Q431 1396 507 1400T647 1404Q882 1404 1002 1312T1123 1036Q1123 821 984 702T594 583Q525 583 446 592V307Z" />
<glyph unicode="Q" glyph-name="null" horiz-adv-x="1647" d="M1548 730Q1548 404 1378 204T932 -28Q1014 -260 1350 -260Q1487 -260 1594 -218L1605 -263Q1398 -428 1279 -428Q901 -428 796 -37Q466 -36 283 157T100 684Q100 1029 297 1231T845 1433Q1181 1433
1364 1245T1548 730ZM319 717Q319 391 451 218T838 44Q1089 44 1208 201T1328 696Q1328 1012 1201 1182T809 1352Q552 1352 436 1195T319 717Z" />
<glyph unicode="R" glyph-name="null" horiz-adv-x="1293" d="M446 307Q446 247 446 199T448 112Q449 81 474 73L585 40L588 -3Q469 0 350 0Q229 0 102 -3L98 40L221 77Q246 84 248 108Q249 148 249 197T250 307V1118Q250 1169 250 1210T248 1284Q247 1310 224
1318L100 1357L98 1400Q227 1396 349 1396Q373 1396 410 1397T500 1401Q554 1403 590 1404T647 1405Q875 1405 989 1319T1103 1068Q1103 919 1025 827T787 684Q850 588 903 499T1001 335T1085 203T1156 113Q1173 96 1190 84T1225 63T1264 49T1310 37L1313 -7Q1241
-16 1192 -16Q1151 -16 1120 -14T1065 -6T1022 9T983 34Q942 65 903 123T821 256T732 413T635 577Q620 601 610 615T587 637T558 648T515 652L446 654V307ZM446 729Q507 726 559 726Q732 726 812 799T893 1030Q893 1182 816 1252T575 1322Q547 1322 515 1320T446
1314V729Z" />
<glyph unicode="S" glyph-name="null" horiz-adv-x="1044" d="M760 1309Q655 1344 567 1344Q435 1344 357 1280T278 1102Q278 1037 305 988T379 902T485 836T607 779Q676 749 741 716T858 637T942 529T974 382Q974 183 835 78T448 -27Q289 -27 96 27L90 35L139
375L184 382L254 98Q360 56 471 56Q620 56 703 122T787 310Q787 374 760 422T688 506T584 569T464 626Q394 656 328 691T209 772T123 886T91 1044Q91 1225 226 1324T586 1423Q744 1423 917 1386L924 1379L865 1067L825 1060L760 1309Z" />
<glyph unicode="T" glyph-name="null" horiz-adv-x="1256" d="M630 0Q507 0 358 -3L354 40L502 84Q527 91 528 115Q530 191 530 309V1307H177L88 1041L48 1034L22 1392L29 1400Q275 1396 500 1396H767Q991 1396 1240 1400L1246 1392L1183 1041L1143 1034L1079
1307H726V309Q726 191 728 115Q729 91 754 84L902 40L904 -3Q749 0 630 0Z" />
<glyph unicode="U" glyph-name="null" horiz-adv-x="1523" d="M63 1400Q192 1396 311 1396Q431 1396 559 1400L563 1357L439 1320Q415 1314 413 1289Q412 1254 412 1213T411 1122V575Q411 289 502 179T795 68Q1000 68 1092 182T1184 563V1122Q1184 1171 1184 1212T1181
1289Q1180 1312 1155 1320L1038 1354L1036 1400Q1163 1396 1254 1396Q1341 1396 1466 1400L1470 1357L1344 1318Q1321 1310 1320 1284Q1319 1251 1319 1210T1318 1118V605Q1318 277 1185 120T764 -37Q483 -37 349 104T215 544V1118Q215 1169 215 1210T213 1284Q212
1310 189 1318L65 1357L63 1400Z" />
<glyph unicode="V" glyph-name="null" horiz-adv-x="1374" d="M627 -8L181 1198Q157 1264 137 1290T75 1329L-16 1357L-18 1400Q81 1396 214 1396Q349 1396 493 1400L497 1357L403 1330Q383 1325 374 1316T365 1288Q365 1268 375 1235T405 1148L728 248L1079 1147Q1100
1202 1112 1235T1124 1289Q1124 1307 1115 1315T1086 1329L993 1354L991 1400Q1100 1396 1211 1396Q1322 1396 1424 1400L1428 1357L1327 1325Q1292 1315 1274 1292T1226 1198L727 0L627 -8Z" />
<glyph unicode="W" glyph-name="null" horiz-adv-x="2088" d="M1400 -8L1049 1057L682 0L581 -8L181 1220Q165 1267 145 1292T87 1329L-4 1357L-6 1400Q92 1396 226 1396Q347 1396 500 1400L504 1357L410 1330Q389 1325 380 1315T371 1286Q371 1266 380 1234T406
1148L677 289L1048 1398L1138 1405L1499 279L1781 1147Q1799 1204 1809 1238T1819 1290Q1819 1308 1810 1316T1781 1329L1687 1354L1685 1400Q1793 1396 1904 1396Q2012 1396 2114 1400L2118 1357L2017 1325Q1987 1316 1970 1297T1935 1231L1501 0L1400 -8Z" />
<glyph unicode="X" glyph-name="null" horiz-adv-x="1346" d="M19 1400Q129 1396 280 1396Q411 1396 554 1400L558 1357L468 1332Q447 1327 438 1317T429 1293Q429 1268 448 1236T490 1171L707 846L889 1135Q904 1158 937 1210T970 1290Q970 1320 930 1330L841
1354L839 1400Q948 1396 1067 1396Q1185 1396 1287 1400L1291 1357L1190 1325Q1154 1314 1129 1289T1065 1206L766 759L1155 181Q1200 113 1221 95T1275 67L1367 40L1369 -3Q1261 0 1120 0Q989 0 833 -3L829 40L919 64Q940 69 949 79T958 104Q958 128 939 160T897
226L626 629L395 261Q366 215 342 174T317 106Q317 91 325 81T355 66L444 42L446 -3Q337 0 217 0Q110 0 -2 -3L-7 40L94 71Q132 83 155 107T212 178L569 714L224 1228Q192 1277 172 1297T112 1329L21 1357L19 1400Z" />
<glyph unicode="Y" glyph-name="null" horiz-adv-x="1215" d="M668 712L899 1149Q924 1197 941 1231T958 1287Q958 1318 914 1330L824 1354L822 1400Q930 1396 1043 1396Q1152 1396 1255 1400L1259 1357L1158 1325Q1122 1314 1103 1290T1063 1231L717 614V310Q717
250 717 201T719 112Q720 87 754 78L878 40L880 -3Q740 0 622 0Q501 0 363 -3L359 40L493 80Q518 87 520 111Q521 151 521 200T522 310V593L170 1203Q133 1264 110 1291T47 1329L-44 1357L-46 1400Q45 1396 200 1396Q335 1396 479 1400L483 1357L389 1331Q368 1326
359 1317T350 1293Q350 1272 365 1242T404 1171L668 712Z" />
<glyph unicode="Z" glyph-name="null" horiz-adv-x="1182" d="M72 -3L68 40L839 1307H249L175 1067L135 1060L83 1392L90 1400Q339 1396 563 1396H799Q941 1396 1085 1400L1089 1357L320 90H929L1063 360L1108 367L1081 4L1075 -3Q794 0 575 0H334Q194 0 72 -3Z" />
<glyph unicode="[" glyph-name="null" horiz-adv-x="707" d="M368 -256L615 -313L617 -356H220V1549H615L617 1506L368 1449V-256Z" />
<glyph unicode="\" glyph-name="null" horiz-adv-x="825" d="M595 -226L90 1426H210L715 -226H595Z" />
<glyph unicode="]" glyph-name="null" horiz-adv-x="707" d="M339 1449L92 1506L90 1549H487V-356H92L90 -313L339 -256V1449Z" />
<glyph unicode="^" glyph-name="null" horiz-adv-x="1130" d="M626 1396L1016 582H887L563 1261L240 582H115L505 1396H626Z" />
<glyph unicode="_" glyph-name="null" horiz-adv-x="1024" d="M1024 -268H0V-178H1024V-268Z" />
<glyph unicode="`" glyph-name="null" horiz-adv-x="840" d="M478 1044H409L172 1417H372L478 1044Z" />
<glyph unicode="a" glyph-name="null" horiz-adv-x="983" d="M617 453Q398 453 318 410T238 265Q238 170 291 131T435 91Q538 91 615 126L617 453ZM132 865Q327 950 477 950Q630 950 715 870T800 639L795 223Q794 172 797 141T815 94T859 71T937 63L942 24Q899
7 837 -10T753 -27Q656 -27 620 73Q480 -28 356 -28Q217 -28 133 40T48 234Q48 388 185 461T617 534L618 612Q619 724 561 778T383 832Q292 832 155 798L132 865Z" />
<glyph unicode="b" glyph-name="null" horiz-adv-x="1141" d="M360 85Q441 59 524 59Q692 59 776 162T861 457Q861 633 783 731T552 829Q454 829 360 785V85ZM366 1499Q360 1349 360 1048V845Q521 950 655 950Q843 950 952 824T1061 495Q1061 248 921 111T531
-27Q365 -27 173 30Q175 157 175 357V950Q175 1171 171 1363L36 1403L31 1436Q195 1467 356 1507L366 1499Z" />
<glyph unicode="c" glyph-name="null" horiz-adv-x="945" d="M880 71Q818 29 727 1T545 -28Q329 -28 203 98T77 436Q77 665 220 807T590 950Q737 950 875 890Q842 756 816 616L777 610L696 850Q650 866 592 866Q443 866 359 762T275 487Q275 286 370 190T671 94Q766
94 874 113L880 71Z" />
<glyph unicode="d" glyph-name="null" horiz-adv-x="1162" d="M777 840Q710 861 627 861Q455 861 365 764T275 468Q275 297 355 195T581 92Q675 92 777 144V840ZM633 1436Q811 1470 959 1507L968 1499Q962 1285 962 1039V495Q962 357 963 222Q963 171 966 140T984
93T1025 70T1103 63L1108 24Q1064 7 1003 -10T919 -27Q818 -27 783 87Q628 -28 482 -28Q297 -28 187 103T76 427Q76 675 223 811T634 947Q698 947 777 933Q777 1154 773 1363L638 1403L633 1436Z" />
<glyph unicode="e" glyph-name="null" horiz-adv-x="981" d="M902 71Q817 18 727 -5T560 -28Q340 -28 209 97T78 446Q78 668 203 809T539 950Q715 950 813 845T911 553Q911 525 908 496H274Q274 281 375 189T691 96Q787 96 896 114L902 71ZM712 579V609Q712 751
667 812T531 873Q412 873 349 787T278 579H712Z" />
<glyph unicode="f" glyph-name="null" horiz-adv-x="634" d="M385 818V275Q385 181 387 110Q389 83 413 76L540 38L543 -3Q392 0 295 0Q196 0 62 -3L57 38L169 70Q197 79 198 103Q200 165 200 234V823L64 857L57 899L201 911V915Q201 1197 323 1352T652 1507Q753
1507 847 1482Q813 1360 789 1231L747 1223L682 1423Q659 1426 624 1426Q509 1426 447 1323T385 946V913H634V818H385Z" />
<glyph unicode="g" glyph-name="null" horiz-adv-x="1040" d="M287 621Q287 491 339 420T492 349Q588 349 636 415T685 610Q685 733 634 804T480 875Q384 875 336 810T287 621ZM275 -44Q207 -142 207 -228Q207 -316 277 -365T470 -414Q615 -414 722 -350T830 -169Q830
-110 777 -76T576 -41Q523 -41 462 -44T342 -47Q310 -47 275 -44ZM796 824Q871 741 871 626Q871 465 759 370T478 274Q382 274 306 304Q252 217 252 167Q252 140 279 131T381 121Q437 121 512 124T652 127Q811 127 903 67T996 -113Q996 -293 827 -397T441 -501Q264
-501 159 -442T53 -287Q53 -162 216 -33Q113 7 113 75Q113 166 256 329Q100 424 100 604Q100 760 210 855T496 950Q542 950 621 938Q696 924 738 924Q889 924 1016 927L1021 886L796 824Z" />
<glyph unicode="h" glyph-name="null" horiz-adv-x="1187" d="M51 1436Q214 1468 377 1507L386 1499Q381 1405 381 1231T380 838Q554 950 704 950Q843 950 925 873T1007 645V292Q1007 177 1009 107Q1010 81 1034 72L1146 38L1148 -3Q1016 0 918 0Q820 0 700 -3L696
38L795 67Q819 75 821 98Q822 112 822 161V597Q822 720 763 773T589 827Q490 827 380 779V330Q380 206 382 103Q383 75 407 68L511 38L513 -3Q387 0 289 0Q191 0 57 -3L53 38L166 71Q192 79 193 103Q195 199 195 348V766Q195 970 195 1127T191 1363L56 1403L51
1436Z" />
<glyph unicode="i" glyph-name="null" horiz-adv-x="580" d="M396 1304Q396 1251 363 1218T278 1184Q228 1184 197 1215T165 1297Q165 1351 198 1382T285 1414Q334 1414 365 1386T396 1304ZM58 880Q233 913 382 950L391 943Q385 813 385 657V273Q385 153 387 107Q389
80 412 72L528 38L530 -3Q392 0 294 0Q196 0 61 -3L57 38L173 72Q196 80 198 103Q200 142 200 234V568Q200 699 196 810L63 846L58 880Z" />
<glyph unicode="j" glyph-name="null" horiz-adv-x="543" d="M44 880Q216 913 365 950L374 943Q368 813 368 657V89Q368 -108 293 -221T27 -503L-19 -462Q129 -267 157 -174T185 63V568Q185 689 181 810L49 846L44 880ZM374 1304Q374 1251 341 1218T256 1184Q206
1184 175 1215T143 1297Q143 1351 176 1382T263 1414Q313 1414 343 1386T374 1304Z" />
<glyph unicode="k" glyph-name="null" horiz-adv-x="1095" d="M1105 -3Q971 0 906 0Q863 0 792 -2Q755 59 704 129Q566 322 407 506L768 856L657 887L653 927Q782 924 843 924Q898 924 1052 927L1056 886Q955 860 911 841T808 766L594 568L916 166Q970 99 1000
77T1103 38L1105 -3ZM56 1403L51 1436Q228 1470 377 1507L386 1499Q380 1353 380 1046V392Q380 244 382 102Q384 73 408 67L505 38L507 -3Q387 0 289 0Q191 0 57 -3L53 38L171 73Q191 80 193 103Q195 216 195 355V766Q195 1285 191 1363L56 1403Z" />
<glyph unicode="l" glyph-name="null" horiz-adv-x="575" d="M56 1403L51 1436Q228 1470 377 1507L386 1499Q380 1336 380 1046V395Q380 216 382 107Q385 78 410 71L519 38L522 -3Q387 0 289 0Q191 0 57 -3L53 38L166 71Q191 79 193 103Q195 216 195 355V766Q195
1138 191 1363L56 1403Z" />
<glyph unicode="m" glyph-name="null" horiz-adv-x="1774" d="M976 755Q990 707 990 647V290Q990 173 992 102Q994 75 1018 67L1119 38L1121 -3Q999 0 901 0Q803 0 683 -3L679 38L774 66Q803 76 804 98Q805 112 805 161V597Q805 720 749 773T583 827Q486 827 385
769V332Q385 207 387 103Q388 73 408 69L514 38L516 -3Q392 0 294 0Q196 0 62 -3L58 38L173 72Q198 79 199 103Q200 156 200 226V567Q200 698 196 810L63 846L58 880Q223 912 374 950L384 943V827Q548 950 695 950Q875 950 955 811Q1113 950 1298 950Q1437 950
1515 872T1594 647V293Q1594 167 1596 107Q1598 80 1623 72L1734 38L1736 -3Q1604 0 1506 0Q1407 0 1288 -3L1284 38L1383 67Q1406 75 1409 98Q1410 112 1410 161V597Q1410 720 1353 773T1185 827Q1073 827 976 755Z" />
<glyph unicode="n" glyph-name="null" horiz-adv-x="1192" d="M58 880Q226 912 375 950L385 943V827Q559 950 709 950Q851 950 931 871T1012 645V292Q1012 167 1014 107Q1015 80 1040 72L1151 38L1153 -3Q1021 0 923 0Q825 0 705 -3L701 38L801 67Q824 75 826
98Q827 112 827 161V597Q827 720 768 773T594 827Q493 827 385 769V332Q385 207 387 103Q388 76 410 69L514 38L516 -3Q392 0 294 0Q196 0 62 -3L58 38L176 72Q198 81 199 103Q200 167 200 226V567Q200 698 196 810L63 846L58 880Z" />
<glyph unicode="o" glyph-name="null" horiz-adv-x="1107" d="M281 472Q281 285 351 168T559 50Q688 50 755 153T823 460Q823 651 752 761T546 871Q418 871 350 772T281 472ZM1027 481Q1027 253 890 113T540 -28Q333 -28 206 104T78 451Q78 671 211 810T565 950Q773
950 900 822T1027 481Z" />
<glyph unicode="p" glyph-name="null" horiz-adv-x="1146" d="M43 846L38 880Q206 912 355 950L365 943V845Q518 950 661 950Q847 950 956 826T1066 502Q1066 257 925 115T525 -28Q448 -28 365 -13V-232Q365 -332 367 -372Q369 -402 394 -408L525 -445L528 -486Q372
-483 274 -483Q176 -483 42 -486L38 -445L153 -411Q177 -404 178 -380Q180 -307 180 -159V248Q180 691 176 808L43 846ZM365 77Q452 58 533 58Q699 58 783 162T867 460Q867 643 787 736T557 829Q449 829 365 785V77Z" />
<glyph unicode="q" glyph-name="null" horiz-adv-x="1133" d="M778 844Q698 864 623 864Q447 864 361 760T275 467Q275 294 353 193T582 92Q686 92 778 127V844ZM969 943Q963 752 963 487V-171Q963 -336 964 -376Q965 -403 987 -410L1102 -445L1104 -486Q969 -483
872 -483Q773 -483 640 -486L635 -445L750 -411Q775 -403 776 -380Q778 -259 778 -77V66Q626 -28 482 -28Q298 -28 187 101T76 427Q76 668 218 809T614 950Q718 950 859 926Q907 937 960 950L969 943Z" />
<glyph unicode="r" glyph-name="null" horiz-adv-x="785" d="M58 880Q225 912 375 950L385 943V826Q570 950 748 950L753 944Q724 795 696 635L656 628Q628 713 602 764T520 816Q466 816 385 766V333Q385 177 387 110Q388 83 412 76L545 38L548 -3Q392 0 294 0Q196
0 62 -3L58 38L174 72Q198 80 199 103Q200 146 200 226V567Q200 730 196 810L63 846L58 880Z" />
<glyph unicode="s" glyph-name="null" horiz-adv-x="829" d="M571 849Q513 865 445 865Q353 865 296 829T239 729Q239 668 275 634T413 566L497 538Q634 491 699 430T764 271Q764 132 655 52T381 -28Q229 -28 70 34Q104 164 125 288L164 294L236 79Q293 57 381
57Q472 57 527 95T582 202Q582 267 546 302T428 365L324 400Q189 445 137 508T84 667Q84 798 184 874T448 950Q600 950 724 906Q696 792 673 665L635 658L571 849Z" />
<glyph unicode="t" glyph-name="null" horiz-adv-x="723" d="M358 818Q352 480 352 273Q352 169 383 130T501 90Q570 90 681 108L687 63Q514 -24 378 -24Q269 -24 216 34T163 211Q163 405 170 824L32 858L26 899L180 912L249 1154Q305 1169 351 1183L361 1176Q358
1055 358 950V913H659V818H358Z" />
<glyph unicode="u" glyph-name="null" horiz-adv-x="1166" d="M796 88Q640 -28 484 -28Q327 -28 249 52T170 277V489Q170 703 166 810L33 846L28 880Q203 912 352 950L361 943Q355 826 355 642V324Q355 203 412 149T573 94Q677 94 786 149V575Q786 715 782 810L650
846L645 880Q819 912 968 950L977 943Q971 823 971 636Q971 273 973 193Q974 152 979 127T998 89T1039 70T1113 63L1118 24Q1072 6 1012 -10T930 -27Q829 -27 796 88Z" />
<glyph unicode="v" glyph-name="null" horiz-adv-x="989" d="M-31 927Q95 924 193 924Q283 924 409 927L413 886L297 854Q379 621 487 359Q515 290 537 227Q559 290 588 358Q679 582 779 854L665 886L661 927Q742 924 830 924Q920 924 1004 927L1008 886L908 857Q885
849 869 818Q790 635 686 383T528 -7L443 -16Q388 129 285 381T107 813Q91 848 63 858L-29 886L-31 927Z" />
<glyph unicode="w" glyph-name="null" horiz-adv-x="1499" d="M-17 927Q126 924 195 924Q294 924 419 927L423 886L305 854Q372 631 474 352Q496 293 515 231Q534 292 556 351Q636 565 677 685T756 920L829 928Q867 807 907 686T1022 352Q1046 288 1062 231Q1081
289 1105 351Q1216 632 1289 855L1176 887L1172 928Q1252 925 1342 925Q1431 925 1504 928L1509 887L1429 865Q1395 855 1379 817Q1285 590 1212 408T1054 -2L964 -11Q903 165 863 275T775 516Q755 569 741 618Q725 570 705 519Q654 386 611 274T509 -2L421 -11Q336
225 266 407T108 818Q94 855 57 865L-15 886L-17 927Z" />
<glyph unicode="x" glyph-name="null" horiz-adv-x="984" d="M27 927Q154 924 254 924Q329 924 443 927L447 886L358 863Q422 754 530 580Q637 738 717 861L632 886L627 927Q711 924 776 924Q865 924 941 927L946 886L851 860Q825 853 803 823Q698 684 576 505Q707
294 832 105Q851 76 884 65L971 38L975 -3Q849 0 749 0Q674 0 560 -3L556 38L643 61Q564 186 453 365Q343 204 252 63L337 38L341 -3Q259 0 195 0Q106 0 17 -3L13 38L110 64Q142 73 169 108Q279 255 406 442Q279 648 172 816Q152 847 118 859L31 886L27 927Z" />
<glyph unicode="y" glyph-name="null" horiz-adv-x="986" d="M-35 927Q91 924 189 924Q256 924 403 927L407 886L290 854Q327 749 376 623T480 359Q503 302 530 228Q558 303 590 381Q637 497 681 609T772 854L658 886L654 927Q728 924 827 924Q916 924 1000 927L1005
886L912 860Q881 850 867 819Q830 734 787 633Q655 323 587 125Q541 -9 504 -149T447 -391Q438 -440 411 -465T282 -491Q179 -491 82 -484L77 -445Q187 -428 240 -374Q304 -305 438 -7L446 12L432 16Q249 472 101 818Q88 848 55 859L-33 886L-35 927Z" />
<glyph unicode="z" glyph-name="null" horiz-adv-x="983" d="M69 9Q239 254 352 421T636 846H245L180 645L140 638Q117 794 90 918L93 927Q297 924 487 924Q679 924 887 927L894 916Q749 702 616 504T336 80H734L859 288L900 294Q884 153 876 4L870 -3Q697 0 464
0Q252 0 76 -3L69 9Z" />
<glyph unicode="{" glyph-name="null" horiz-adv-x="720" d="M80 614Q169 630 211 670T253 827V1273Q253 1424 327 1492T603 1559L605 1513Q535 1498 497 1478T442 1428T421 1357T418 1259V927Q418 776 378 704T234 600V594Q338 562 378 490T418 267V-65Q418 -122
421 -163T441 -233T497 -283T603 -319L605 -365Q401 -366 327 -298T253 -79V367Q253 483 211 523T82 580L80 614Z" />
<glyph unicode="|" glyph-name="null" horiz-adv-x="712" d="M412 1525V-508H300V1525H412Z" />
<glyph unicode="}" glyph-name="null" horiz-adv-x="720" d="M638 580Q551 564 509 524T467 367V-79Q467 -230 393 -298T117 -365L115 -319Q185 -304 223 -284T278 -234T299 -163T302 -65V267Q302 418 342 490T486 594V600Q382 632 342 704T302 927V1259Q302 1316
299 1357T279 1427T223 1477T117 1513L115 1559Q319 1560 393 1492T467 1273V827Q467 711 509 671T640 614L638 580Z" />
<glyph unicode="~" glyph-name="null" horiz-adv-x="1130" d="M93 497Q228 585 347 585Q411 585 471 565T591 521Q647 498 700 479T810 460Q906 460 1037 547V426Q910 343 791 343Q727 343 666 363T544 407Q488 429 435 447T326 465Q228 465 93 376V497Z" />
</font>
</defs>
</svg>
